<svg xmlns="http://www.w3.org/2000/svg" width="146" height="28" viewBox="0 0 146 28" fill="none"><path d="M139.862 21.1057C139.158 21.0508 138.481 20.9045 137.832 20.6667C137.183 20.4198 136.602 20.0906 136.09 19.679C135.587 19.2584 135.194 18.7554 134.91 18.1701L138.093 16.7984C138.193 16.9447 138.344 17.1047 138.545 17.2785C138.746 17.4431 138.989 17.5894 139.272 17.7174C139.565 17.8455 139.903 17.9095 140.287 17.9095C140.571 17.9095 140.845 17.8775 141.11 17.8135C141.376 17.7403 141.591 17.626 141.755 17.4705C141.92 17.3059 142.002 17.091 142.002 16.8258C142.002 16.5332 141.897 16.3091 141.687 16.1536C141.476 15.9982 141.22 15.8839 140.918 15.8107C140.626 15.7284 140.342 15.6598 140.068 15.6049C139.227 15.4586 138.431 15.198 137.681 14.823C136.94 14.439 136.337 13.9451 135.87 13.3415C135.404 12.738 135.171 12.0155 135.171 11.1742C135.171 10.2505 135.413 9.45492 135.898 8.78733C136.382 8.1106 137.013 7.58934 137.791 7.22354C138.568 6.85774 139.409 6.67484 140.315 6.67484C141.385 6.67484 142.377 6.89889 143.291 7.34699C144.206 7.7951 144.942 8.42611 145.5 9.24001L142.51 11.0096C142.391 10.8358 142.235 10.6712 142.043 10.5157C141.86 10.3511 141.645 10.214 141.398 10.1042C141.161 9.98533 140.905 9.91674 140.63 9.89845C140.274 9.87102 139.949 9.89388 139.656 9.96704C139.364 10.0311 139.131 10.1545 138.957 10.3374C138.792 10.5203 138.71 10.7672 138.71 11.0782C138.71 11.3799 138.842 11.604 139.108 11.7503C139.373 11.8875 139.679 11.9927 140.027 12.0658C140.374 12.1298 140.681 12.2076 140.946 12.299C141.741 12.5551 142.487 12.8843 143.182 13.2867C143.886 13.6799 144.453 14.1646 144.883 14.7407C145.313 15.3169 145.514 15.9936 145.486 16.7709C145.486 17.6763 145.217 18.4719 144.677 19.1578C144.137 19.8345 143.438 20.3512 142.578 20.7079C141.728 21.0554 140.822 21.188 139.862 21.1057Z" fill="white"></path><path d="M126.795 21.2154C125.533 21.2154 124.381 20.8908 123.339 20.2415C122.305 19.5922 121.478 18.7188 120.856 17.6214C120.243 16.524 119.937 15.3123 119.937 13.9863C119.937 12.9895 120.115 12.0567 120.472 11.1879C120.828 10.31 121.317 9.5418 121.939 8.88336C122.57 8.21577 123.302 7.6945 124.134 7.31956C124.966 6.94461 125.853 6.75714 126.795 6.75714C127.884 6.75714 128.876 6.99034 129.772 7.45673C130.677 7.92313 131.441 8.55871 132.063 9.36347C132.694 10.1682 133.142 11.0782 133.407 12.0933C133.682 13.1084 133.727 14.1646 133.544 15.262H124.024C124.143 15.6644 124.326 16.0302 124.573 16.3594C124.829 16.6795 125.14 16.9355 125.506 17.1276C125.881 17.3196 126.311 17.4202 126.795 17.4294C127.271 17.4385 127.71 17.3288 128.112 17.1001C128.515 16.8715 128.858 16.5652 129.141 16.1811L133.009 17.0727C132.452 18.289 131.619 19.2858 130.513 20.0631C129.406 20.8313 128.167 21.2154 126.795 21.2154ZM123.887 12.4636H129.717C129.598 12.0064 129.397 11.5949 129.114 11.2291C128.83 10.8633 128.487 10.5752 128.085 10.3648C127.692 10.1545 127.262 10.0493 126.795 10.0493C126.338 10.0493 125.908 10.1545 125.506 10.3648C125.113 10.5752 124.774 10.8633 124.491 11.2291C124.216 11.5857 124.015 11.9972 123.887 12.4636Z" fill="white"></path><path d="M114.645 7.14123H118.431V20.8587H114.645V7.14123ZM116.566 5.56371C116.017 5.56371 115.555 5.38081 115.18 5.01501C114.805 4.64921 114.618 4.19653 114.618 3.65698C114.618 3.11742 114.805 2.66474 115.18 2.29894C115.555 1.93314 116.013 1.75024 116.552 1.75024C117.092 1.75024 117.544 1.93314 117.91 2.29894C118.285 2.66474 118.473 3.11742 118.473 3.65698C118.473 4.19653 118.29 4.64921 117.924 5.01501C117.567 5.38081 117.115 5.56371 116.566 5.56371Z" fill="white"></path><path d="M102.618 27.7175H98.8323V7.14123H102.618V8.62272C103.057 8.08317 103.579 7.64421 104.182 7.30584C104.786 6.95833 105.49 6.78458 106.295 6.78458C107.291 6.78458 108.224 6.97205 109.093 7.34699C109.971 7.72194 110.739 8.2432 111.398 8.91079C112.056 9.56923 112.573 10.3328 112.948 11.2016C113.323 12.0704 113.51 13.0032 113.51 14C113.51 14.9968 113.323 15.9342 112.948 16.8121C112.573 17.69 112.056 18.4628 111.398 19.1303C110.739 19.7888 109.971 20.3055 109.093 20.6804C108.224 21.0554 107.291 21.2428 106.295 21.2428C105.49 21.2428 104.786 21.0691 104.182 20.7216C103.579 20.3741 103.057 19.9351 102.618 19.4047V27.7175ZM106.24 10.4197C105.618 10.4197 105.056 10.5843 104.553 10.9135C104.059 11.2336 103.665 11.6634 103.373 12.203C103.089 12.7426 102.948 13.3415 102.948 14C102.948 14.6584 103.089 15.262 103.373 15.8107C103.665 16.3503 104.059 16.7801 104.553 17.1001C105.056 17.4202 105.618 17.5803 106.24 17.5803C106.862 17.5803 107.429 17.4202 107.941 17.1001C108.462 16.7801 108.874 16.3503 109.175 15.8107C109.486 15.2711 109.642 14.6676 109.642 14C109.642 13.3507 109.491 12.7563 109.189 12.2167C108.887 11.668 108.476 11.2336 107.954 10.9135C107.442 10.5843 106.871 10.4197 106.24 10.4197Z" fill="white"></path><path d="M87.014 27.7175H83.228V7.14123H87.014V8.62272C87.453 8.08317 87.9742 7.64421 88.5778 7.30584C89.1814 6.95833 89.8855 6.78458 90.6903 6.78458C91.6871 6.78458 92.6199 6.97205 93.4887 7.34699C94.3666 7.72194 95.1348 8.2432 95.7932 8.91079C96.4516 9.56923 96.9683 10.3328 97.3433 11.2016C97.7182 12.0704 97.9057 13.0032 97.9057 14C97.9057 14.9968 97.7182 15.9342 97.3433 16.8121C96.9683 17.69 96.4516 18.4628 95.7932 19.1303C95.1348 19.7888 94.3666 20.3055 93.4887 20.6804C92.6199 21.0554 91.6871 21.2428 90.6903 21.2428C89.8855 21.2428 89.1814 21.0691 88.5778 20.7216C87.9742 20.3741 87.453 19.9351 87.014 19.4047V27.7175ZM90.6354 10.4197C90.0136 10.4197 89.4511 10.5843 88.9482 10.9135C88.4543 11.2336 88.0611 11.6634 87.7685 12.203C87.485 12.7426 87.3432 13.3415 87.3432 14C87.3432 14.6584 87.485 15.262 87.7685 15.8107C88.0611 16.3503 88.4543 16.7801 88.9482 17.1001C89.4511 17.4202 90.0136 17.5803 90.6354 17.5803C91.2573 17.5803 91.8243 17.4202 92.3364 17.1001C92.8577 16.7801 93.2692 16.3503 93.571 15.8107C93.8819 15.2711 94.0374 14.6676 94.0374 14C94.0374 13.3507 93.8865 12.7563 93.5847 12.2167C93.2829 11.668 92.8714 11.2336 92.3501 10.9135C91.838 10.5843 91.2664 10.4197 90.6354 10.4197Z" fill="white"></path><path d="M69.0632 15.8381V7.14124H72.8493V14.7956C72.8493 15.2803 72.9636 15.7193 73.1922 16.1125C73.43 16.4966 73.7455 16.8029 74.1387 17.0316C74.5319 17.2602 74.9618 17.3745 75.4282 17.3745C75.9037 17.3745 76.3381 17.2602 76.7313 17.0316C77.1246 16.8029 77.4355 16.4966 77.6641 16.1125C77.8927 15.7193 78.0071 15.2803 78.0071 14.7956V7.14124H81.7931L81.8068 20.8588H78.0208L78.0071 19.8162C77.5498 20.2552 77.0102 20.5981 76.3884 20.845C75.7757 21.0919 75.1264 21.2154 74.4405 21.2154C73.4528 21.2154 72.5521 20.9731 71.7382 20.4884C70.9242 20.0037 70.275 19.359 69.7903 18.5542C69.3056 17.7403 69.0632 16.8349 69.0632 15.8381Z" fill="white"></path><path d="M57.0012 27.7175H53.2152V7.14123H57.0012V8.62272C57.4402 8.08317 57.9615 7.64421 58.565 7.30584C59.1686 6.95833 59.8728 6.78458 60.6775 6.78458C61.6743 6.78458 62.6071 6.97205 63.4759 7.34699C64.3538 7.72194 65.122 8.2432 65.7805 8.91079C66.4389 9.56923 66.9556 10.3328 67.3305 11.2016C67.7055 12.0704 67.893 13.0032 67.893 14C67.893 14.9968 67.7055 15.9342 67.3305 16.8121C66.9556 17.69 66.4389 18.4628 65.7805 19.1303C65.122 19.7888 64.3538 20.3055 63.4759 20.6804C62.6071 21.0554 61.6743 21.2428 60.6775 21.2428C59.8728 21.2428 59.1686 21.0691 58.565 20.7216C57.9615 20.3741 57.4402 19.9351 57.0012 19.4047V27.7175ZM60.6227 10.4197C60.0008 10.4197 59.4384 10.5843 58.9354 10.9135C58.4416 11.2336 58.0483 11.6634 57.7557 12.203C57.4722 12.7426 57.3305 13.3415 57.3305 14C57.3305 14.6584 57.4722 15.262 57.7557 15.8107C58.0483 16.3503 58.4416 16.7801 58.9354 17.1001C59.4384 17.4202 60.0008 17.5803 60.6227 17.5803C61.2445 17.5803 61.8115 17.4202 62.3236 17.1001C62.8449 16.7801 63.2564 16.3503 63.5582 15.8107C63.8691 15.2711 64.0246 14.6676 64.0246 14C64.0246 13.3507 63.8737 12.7563 63.5719 12.2167C63.2701 11.668 62.8586 11.2336 62.3374 10.9135C61.8252 10.5843 61.2537 10.4197 60.6227 10.4197Z" fill="white"></path><path d="M45.0464 6.75714C46.3815 6.75714 47.5933 7.08179 48.6815 7.73108C49.7789 8.38038 50.6523 9.25373 51.3016 10.3511C51.9509 11.4394 52.2755 12.6465 52.2755 13.9726C52.2755 14.9694 52.088 15.9067 51.7131 16.7846C51.3381 17.6626 50.8169 18.4353 50.1493 19.1029C49.4909 19.7613 48.7227 20.278 47.8448 20.653C46.976 21.0279 46.0432 21.2154 45.0464 21.2154C44.2599 21.2154 43.5603 21.0416 42.9476 20.6941C42.3349 20.3466 41.809 19.9077 41.3701 19.3773V20.8587H37.584V0.282471H41.3701V8.59529C41.809 8.05573 42.3349 7.61677 42.9476 7.27841C43.5603 6.9309 44.2599 6.75714 45.0464 6.75714ZM44.9915 17.5528C45.6225 17.5528 46.1941 17.3928 46.7062 17.0727C47.2275 16.7526 47.639 16.3228 47.9408 15.7833C48.2426 15.2346 48.3934 14.631 48.3934 13.9726C48.3934 13.3141 48.238 12.7151 47.9271 12.1756C47.6253 11.636 47.2137 11.2062 46.6925 10.8861C46.1804 10.5569 45.6134 10.3923 44.9915 10.3923C44.3696 10.3923 43.8072 10.5569 43.3043 10.8861C42.8104 11.2062 42.4172 11.6406 42.1245 12.1893C41.8411 12.7288 41.6993 13.3233 41.6993 13.9726C41.6993 14.6401 41.8411 15.2437 42.1245 15.7833C42.4172 16.3228 42.8104 16.7526 43.3043 17.0727C43.8072 17.3928 44.3696 17.5528 44.9915 17.5528Z" fill="white"></path><path d="M29.4679 21.2154C28.2059 21.2154 27.0536 20.8908 26.0111 20.2415C24.9777 19.5922 24.1501 18.7188 23.5282 17.6214C22.9155 16.524 22.6091 15.3123 22.6091 13.9863C22.6091 12.9895 22.7875 12.0567 23.1441 11.1879C23.5008 10.31 23.99 9.5418 24.6119 8.88336C25.2429 8.21577 25.9745 7.6945 26.8067 7.31956C27.6389 6.94461 28.526 6.75714 29.4679 6.75714C30.5561 6.75714 31.5484 6.99034 32.4446 7.45673C33.3499 7.92313 34.1136 8.55871 34.7354 9.36347C35.3664 10.1682 35.8145 11.0782 36.0797 12.0933C36.3541 13.1084 36.3998 14.1646 36.2169 15.262H26.697C26.8158 15.6644 26.9987 16.0302 27.2457 16.3594C27.5017 16.6795 27.8126 16.9355 28.1784 17.1276C28.5534 17.3196 28.9832 17.4202 29.4679 17.4294C29.9434 17.4385 30.3824 17.3288 30.7848 17.1001C31.1872 16.8715 31.5301 16.5652 31.8136 16.1811L35.6819 17.0727C35.1241 18.289 34.2919 19.2858 33.1853 20.0631C32.0788 20.8313 30.8396 21.2154 29.4679 21.2154ZM26.5598 12.4636H32.3897C32.2708 12.0064 32.0696 11.5949 31.7861 11.2291C31.5027 10.8633 31.1597 10.5752 30.7573 10.3648C30.3641 10.1545 29.9343 10.0493 29.4679 10.0493C29.0106 10.0493 28.5808 10.1545 28.1784 10.3648C27.7852 10.5752 27.4468 10.8633 27.1633 11.2291C26.889 11.5857 26.6878 11.9972 26.5598 12.4636Z" fill="white"></path><path d="M8.81281 20.8588H5.08165L0.5 7.14124H4.20373L6.96095 15.358L9.69074 7.14124H13.3945L16.1243 15.358L18.8678 7.14124H22.5852L17.9898 20.8588H14.2724L11.5426 12.6282L8.81281 20.8588Z" fill="white"></path></svg>